<svg width="119" height="136" viewBox="0 0 119 136" fill="none" xmlns="http://www.w3.org/2000/svg">
<path d="M28.1613 31.1589C27.8793 32.822 27.7488 34.5321 27.7488 36.2789C27.7488 53.8404 41.9573 68.0601 59.487 68.0601C77.0114 68.0601 91.2408 53.8457 91.2408 36.2789C91.2408 34.5321 91.1051 32.822 90.8335 31.1589H28.1613V31.1589Z" fill="url(#paint0_radial_331_3635)"/>
<path d="M52.3227 136H66.6722V78.619H52.3227V136ZM27.942 122.805C27.942 133.709 35.8217 135.697 39.9 135.984H42.3177V78.619H27.942V122.805ZM76.6772 78.619V135.979H79.1263C83.0426 135.702 90.3897 133.898 91.0425 124.223V78.6138H76.6772V78.619Z" fill="url(#paint1_radial_331_3635)"/>
<path d="M99.6218 0H19.3625C8.65255 0 0 8.67095 0 19.4024V100.966C0 110.939 6.02076 119.15 15.6863 120.243V15.8828H103.408V120.222C112.99 119.071 119 110.902 119 100.966V19.4024C119 8.67095 110.327 0 99.6218 0Z" fill="white"/>
<defs>
<radialGradient id="paint0_radial_331_3635" cx="0" cy="0" r="1" gradientUnits="userSpaceOnUse" gradientTransform="translate(-32.4639 21.7856) scale(201.311 201.617)">
<stop offset="0.00549451" stop-color="#FBED1F"/>
<stop offset="0.1174" stop-color="#FBE91F"/>
<stop offset="0.2403" stop-color="#FADB20"/>
<stop offset="0.3684" stop-color="#F8C520"/>
<stop offset="0.5002" stop-color="#F6A721"/>
<stop offset="0.6333" stop-color="#F28022"/>
<stop offset="0.7253" stop-color="#F06023"/>
<stop offset="1" stop-color="#F06023"/>
</radialGradient>
<radialGradient id="paint1_radial_331_3635" cx="0" cy="0" r="1" gradientUnits="userSpaceOnUse" gradientTransform="translate(-4.79464 54.4513) scale(167.91 168.166)">
<stop offset="0.00549451" stop-color="#FFEB00"/>
<stop offset="0.8791" stop-color="#F06023"/>
<stop offset="1" stop-color="#F06023"/>
</radialGradient>
</defs>
</svg>
